# xmcd CD database file
#
# Track frame offsets:
#	150
#	20502
#	39557
#	58690
#	72165
#	85230
#	103542
#	120322
#	137985
#	152417
#
# Disc length: 2235 seconds
#
# Revision: 0
# Processed by: cddbd v1.5.1PL0 Copyright (c) Steve Scherf et al.
# Submitted via: CdAid (MTCDDB.DLL V2003.12.21)
#
DISCID=7c08b90a
DTITLE=Avva Bissi - Eimai
DYEAR=1990
DGENRE=Blues
TTITLE0=Eimai
TTITLE1=Adika
TTITLE2=Fws
TTITLE3=Perimevo Tnlefwvnma Sou
TTITLE4=Ypopsies
TTITLE5=Eva Sou Lew
TTITLE6=H Zwn Suvexizetai
TTITLE7=Yperboles
TTITLE8=XexvasJEXNAS
TTITLE9=Movo eva THauma
EXTD=ID3G:   0 YEAR: 1990
EXTT0=
EXTT1=
EXTT2=
EXTT3=
EXTT4=
EXTT5=
EXTT6=
EXTT7=
EXTT8=
EXTT9=
PLAYORDER=
